<?xml version="1.0" encoding="utf-8"?>
<!-- Generator: Adobe Illustrator 25.3.1, SVG Export Plug-In . SVG Version: 6.00 Build 0)  -->
<svg version="1.1" id="Layer_1" xmlns="http://www.w3.org/2000/svg" xmlns:xlink="http://www.w3.org/1999/xlink" x="0px" y="0px"
	 viewBox="0 0 687.47 100" style="enable-background:new 0 0 687.47 100;" xml:space="preserve">
<style type="text/css">
	.st0{fill:#3B7DED;}
	.st1{fill:#424143;}
</style>
<g>
	<g>
		<rect y="27.46" class="st0" width="20.65" height="72.54"/>
		<path class="st0" d="M56.16,72.49c0.43,3.62,1.36,6.19,2.8,7.72c2.54,2.72,7.23,4.07,14.07,4.07c4.02,0,7.22-0.59,9.58-1.79
			c2.37-1.19,3.55-2.98,3.55-5.36c0-2.29-0.95-4.02-2.86-5.22c-1.91-1.19-9.01-3.24-21.3-6.14c-8.85-2.19-15.09-4.93-18.7-8.22
			c-3.62-3.24-5.43-7.91-5.43-14c0-7.19,2.83-13.37,8.48-18.54c5.66-5.17,13.62-7.75,23.88-7.75c9.74,0,17.67,1.94,23.81,5.82
			c6.13,3.88,9.65,10.59,10.56,20.11H84.24c-0.29-2.62-1.03-4.69-2.22-6.22c-2.25-2.76-6.07-4.14-11.46-4.14
			c-4.44,0-7.61,0.69-9.49,2.07c-1.89,1.38-2.83,3-2.83,4.86c0,2.33,1,4.03,3.01,5.07c2.01,1.1,9.09,2.98,21.26,5.64
			c8.11,1.91,14.19,4.79,18.24,8.65c4,3.91,6,8.79,6,14.65c0,7.72-2.88,14.02-8.63,18.9C92.37,97.56,83.48,100,71.45,100
			c-12.27,0-21.32-2.58-27.17-7.75c-5.85-5.17-8.77-11.75-8.77-19.76H56.16z"/>
		<path class="st0" d="M113.75,36.23v-14.5h10.86V0h20.15v21.72h12.65v14.5h-12.65v41.16c0,3.19,0.4,5.18,1.21,5.97
			c0.81,0.79,3.29,1.18,7.43,1.18c0.62,0,1.27-0.01,1.97-0.04c0.69-0.02,1.37-0.06,2.04-0.11V99.6l-9.65,0.36
			c-9.62,0.33-16.2-1.33-19.72-5c-2.29-2.33-3.43-5.93-3.43-10.79V36.23H113.75z"/>
		<path class="st0" d="M162.48,36.23v-14.5h10.86V0h20.15v21.72h12.65v14.5h-12.65v41.16c0,3.19,0.4,5.18,1.21,5.97
			c0.81,0.79,3.29,1.18,7.43,1.18c0.62,0,1.27-0.01,1.97-0.04c0.69-0.02,1.37-0.06,2.04-0.11V99.6l-9.65,0.36
			c-9.62,0.33-16.2-1.33-19.72-5c-2.29-2.33-3.43-5.93-3.43-10.79V36.23H162.48z"/>
		<g>
			<g>
				<path class="st0" d="M15.39,3.8l1.47-1.47C15.08,0.87,12.8,0,10.32,0C7.85,0,5.57,0.87,3.79,2.33L5.26,3.8
					c1.4-1.09,3.16-1.73,5.06-1.73C12.23,2.06,13.99,2.71,15.39,3.8z"/>
				<path class="st0" d="M16.85,15.39l1.47,1.47c1.46-1.78,2.33-4.05,2.33-6.53c0-2.48-0.87-4.75-2.33-6.53l-1.47,1.47
					c1.09,1.4,1.73,3.16,1.73,5.06C18.58,12.23,17.94,13.99,16.85,15.39z"/>
				<path class="st0" d="M3.8,5.26L2.33,3.79C0.87,5.57,0,7.85,0,10.32c0,2.48,0.87,4.75,2.33,6.53l1.47-1.47
					c-1.09-1.4-1.73-3.16-1.73-5.06C2.06,8.42,2.71,6.66,3.8,5.26z"/>
				<path class="st0" d="M5.26,16.85l-1.47,1.47c1.78,1.46,4.05,2.33,6.53,2.33c2.48,0,4.75-0.87,6.53-2.33l-1.47-1.47
					c-1.4,1.09-3.16,1.73-5.06,1.73S6.66,17.94,5.26,16.85z"/>
			</g>
			<g>
				<circle class="st0" cx="10.32" cy="10.32" r="6.19"/>
			</g>
		</g>
		<path class="st0" d="M284.16,92.21c-0.67-0.95-1.07-2.76-1.21-5.43c-0.1-3.52-0.14-6.53-0.14-9V42.05
			c0-9.38-3.32-15.77-9.97-19.15c-6.65-3.38-14.26-5.07-22.82-5.07c-13.16,0-22.44,3.43-27.84,10.29c-3.4,4.38-5.31,9.98-5.74,16.79
			h19.65c0.48-3,1.45-5.38,2.9-7.14c2.03-2.38,5.48-3.57,10.36-3.57c4.34,0,7.64,0.61,9.89,1.82c2.25,1.21,3.37,3.42,3.37,6.61
			c0,2.62-1.46,4.55-4.39,5.79c-1.63,0.71-4.34,1.31-8.13,1.79l-6.98,0.86c-7.92,1-13.92,2.67-18,5
			c-7.44,4.29-11.16,11.22-11.16,20.79c0,7.38,2.31,13.09,6.93,17.11c4.62,4.02,10.48,6.04,17.57,6.04c5.56,0,10.54-1.26,14.95-3.79
			c3.69-2.14,6.95-4.74,9.77-7.79c0.14,1.76,0.33,3.33,0.57,4.72c0.24,1.38,0.67,2.86,1.29,4.43h22.15v-3
			C285.82,93.95,284.82,93.17,284.16,92.21z M248.4,59.69c3.39,0,6.5,1.19,8.93,3.19l-2.01,2.01c-1.91-1.49-4.31-2.37-6.92-2.37
			c-2.61,0-5.01,0.89-6.92,2.37l-2.01-2.01C241.9,60.89,245.01,59.69,248.4,59.69z M256.86,73.81c0,4.68-3.79,8.47-8.47,8.47
			c-4.68,0-8.47-3.79-8.47-8.47c0-4.68,3.79-8.47,8.47-8.47C253.07,65.34,256.86,69.13,256.86,73.81z M237.47,82.74
			c-1.99-2.43-3.19-5.54-3.19-8.93c0-3.39,1.19-6.5,3.19-8.93l2.01,2.01c-1.49,1.91-2.37,4.31-2.37,6.92c0,2.61,0.88,5.01,2.37,6.92
			L237.47,82.74z M248.4,87.92c-3.39,0-6.5-1.19-8.93-3.19l2.01-2.01c1.91,1.49,4.31,2.37,6.92,2.37c2.61,0,5.01-0.89,6.92-2.37
			l2.01,2.01C254.89,86.72,251.78,87.92,248.4,87.92z M259.32,82.74l-2.01-2.01c1.49-1.91,2.37-4.31,2.37-6.92
			c0-2.61-0.88-5.01-2.37-6.92l2.01-2.01c1.99,2.43,3.18,5.54,3.18,8.93C262.51,77.19,261.31,80.3,259.32,82.74z"/>
		<path class="st0" d="M365.54,92.21c-0.67-0.95-1.07-2.76-1.21-5.43c-0.1-3.52-0.14-6.53-0.14-9V42.05
			c0-9.38-3.32-15.77-9.97-19.15c-6.65-3.38-14.26-5.07-22.82-5.07c-13.16,0-22.44,3.43-27.84,10.29c-3.4,4.38-5.31,9.98-5.74,16.79
			h19.65c0.48-3,1.45-5.38,2.9-7.14c2.03-2.38,5.48-3.57,10.36-3.57c4.34,0,7.64,0.61,9.89,1.82c2.25,1.21,3.37,3.42,3.37,6.61
			c0,2.62-1.46,4.55-4.39,5.79c-1.63,0.71-4.34,1.31-8.13,1.79l-6.98,0.86c-7.92,1-13.92,2.67-18,5
			c-7.44,4.29-11.16,11.22-11.16,20.79c0,7.38,2.31,13.09,6.93,17.11c4.62,4.02,10.48,6.04,17.57,6.04c5.56,0,10.54-1.26,14.95-3.79
			c3.69-2.14,6.95-4.74,9.77-7.79c0.14,1.76,0.33,3.33,0.57,4.72c0.24,1.38,0.67,2.86,1.29,4.43h22.15v-3
			C367.21,93.95,366.21,93.17,365.54,92.21z M329.78,59.69c3.39,0,6.5,1.19,8.93,3.19l-2.01,2.01c-1.91-1.49-4.31-2.37-6.92-2.37
			c-2.61,0-5.01,0.89-6.92,2.37l-2.01-2.01C323.28,60.89,326.39,59.69,329.78,59.69z M338.24,73.81c0,4.68-3.79,8.47-8.47,8.47
			c-4.68,0-8.47-3.79-8.47-8.47c0-4.68,3.79-8.47,8.47-8.47C334.45,65.34,338.24,69.13,338.24,73.81z M318.85,82.74
			c-1.99-2.43-3.18-5.54-3.18-8.93c0-3.39,1.19-6.5,3.18-8.93l2.01,2.01c-1.49,1.91-2.37,4.31-2.37,6.92c0,2.61,0.88,5.01,2.37,6.92
			L318.85,82.74z M329.78,87.92c-3.39,0-6.5-1.19-8.93-3.19l2.01-2.01c1.91,1.49,4.31,2.37,6.92,2.37c2.61,0,5.01-0.89,6.92-2.37
			l2.01,2.01C336.28,86.72,333.17,87.92,329.78,87.92z M340.7,82.74l-2.01-2.01c1.49-1.91,2.37-4.31,2.37-6.92
			c0-2.61-0.88-5.01-2.37-6.92l2.01-2.01c1.99,2.43,3.18,5.54,3.18,8.93C343.89,77.19,342.69,80.3,340.7,82.74z"/>
	</g>
	<g>
		<path class="st1" d="M397.14,98.67h-8.6V35h8.6V98.67z"/>
		<path class="st1" d="M448.66,98.67h-7.8V70.12c0-4.2-0.74-7.27-2.22-9.22c-1.48-1.95-4.05-2.93-7.72-2.93
			c-1.24,0-2.56,0.24-3.95,0.71c-1.39,0.47-2.72,1.29-3.99,2.44c-1.27,1.15-2.31,2.75-3.1,4.79c-0.8,2.04-1.2,4.54-1.2,7.49v25.27
			h-7.8V52.29h7.36v6.56h0.18c0.59-0.83,1.26-1.65,2-2.48c0.74-0.83,1.69-1.65,2.84-2.48c1.15-0.83,2.5-1.52,4.03-2.08
			c1.54-0.56,3.25-0.84,5.14-0.84c2.01,0,3.95,0.24,5.81,0.71c1.86,0.47,3.59,1.32,5.19,2.53c1.6,1.21,2.87,2.88,3.81,5.01
			c0.94,2.13,1.42,4.76,1.42,7.89V98.67z"/>
		<path class="st1" d="M486.53,65.5c-0.06-0.94-0.21-1.83-0.44-2.66c-0.24-0.83-0.73-1.64-1.46-2.44c-0.74-0.8-1.86-1.45-3.37-1.95
			c-1.51-0.5-3.41-0.75-5.72-0.75c-0.77,0-1.66,0.07-2.66,0.22c-1.01,0.15-2.01,0.46-3.02,0.93c-1.01,0.47-1.85,1.15-2.53,2.04
			c-0.68,0.89-1.02,2.01-1.02,3.37c0,1.77,0.58,3.05,1.73,3.81s3.38,1.57,6.7,2.39l7.8,1.95c4.79,1.18,8.16,2.72,10.11,4.61
			c1.95,1.89,2.93,4.43,2.93,7.63c0,4.67-1.72,8.4-5.14,11.17C487,98.61,482.6,100,477.22,100c-4.32,0-7.82-0.53-10.51-1.6
			c-2.69-1.06-4.7-2.44-6.03-4.12c-1.33-1.68-2.22-3.38-2.66-5.1c-0.44-1.71-0.7-3.52-0.75-5.41h7.54c0.12,1.24,0.31,2.35,0.58,3.33
			c0.27,0.97,0.83,1.95,1.68,2.93c0.86,0.97,2.11,1.76,3.77,2.35c1.65,0.59,3.75,0.89,6.3,0.89c3.02,0,5.54-0.62,7.58-1.86
			c2.04-1.24,3.06-3.07,3.06-5.5c0-1.77-0.67-3.1-2-3.99c-1.33-0.89-3.74-1.77-7.23-2.66l-9.05-2.22c-3.43-0.83-6.07-2.14-7.94-3.94
			c-1.86-1.8-2.79-4.24-2.79-7.32c0-2.48,0.47-4.66,1.42-6.52c0.94-1.86,2.25-3.44,3.9-4.74c3.19-2.36,7.27-3.55,12.24-3.55
			c3.84,0,6.98,0.59,9.4,1.77c2.42,1.18,4.23,2.6,5.41,4.26c1.18,1.66,1.97,3.24,2.35,4.74c0.38,1.51,0.58,2.76,0.58,3.77H486.53z"
			/>
		<path class="st1" d="M514.11,58.77v30.15c0,1.6,0.46,2.6,1.37,3.01c0.92,0.41,2.02,0.62,3.33,0.62h2.75v6.12
			c-0.65,0.06-1.83,0.18-3.55,0.36c-1.24,0.18-2.01,0.27-2.31,0.27c-3.55,0-6-0.87-7.36-2.62c-1.36-1.74-2.04-4.18-2.04-7.32V58.77
			h-6.3v-6.47h6.3V39.35h7.8v12.95h7.45v6.47H514.11z"/>
		<path class="st1" d="M529.36,43.87V35h7.8v8.87H529.36z M537.16,98.67h-7.8V52.29h7.8V98.67z"/>
		<path class="st1" d="M558.45,58.77v30.15c0,1.6,0.46,2.6,1.37,3.01c0.92,0.41,2.02,0.62,3.33,0.62h2.75v6.12
			c-0.65,0.06-1.83,0.18-3.55,0.36c-1.24,0.18-2.01,0.27-2.31,0.27c-3.55,0-6-0.87-7.36-2.62c-1.36-1.74-2.04-4.18-2.04-7.32V58.77
			h-6.3v-6.47h6.3V39.35h7.8v12.95h7.45v6.47H558.45z"/>
		<path class="st1" d="M603.76,98.67v-6.74l-0.18-0.18c-1.71,2.84-3.69,4.92-5.94,6.25c-2.25,1.33-5.17,1.99-8.78,1.99
			c-1.83,0-3.62-0.24-5.37-0.71c-1.75-0.47-3.36-1.27-4.83-2.39c-1.48-1.12-2.66-2.62-3.55-4.48c-0.89-1.86-1.33-4.12-1.33-6.78
			V52.29h7.8v30.77c0,3.61,0.8,6.21,2.39,7.8c1.6,1.6,3.78,2.39,6.56,2.39c2.36,0,4.37-0.46,6.03-1.37
			c1.65-0.92,2.97-2.14,3.94-3.68c0.98-1.54,1.69-3.19,2.13-4.96c0.44-1.77,0.66-3.58,0.66-5.41V52.29h7.8v46.38H603.76z"/>
		<path class="st1" d="M632.4,58.77v30.15c0,1.6,0.46,2.6,1.37,3.01c0.92,0.41,2.02,0.62,3.33,0.62h2.75v6.12
			c-0.65,0.06-1.83,0.18-3.55,0.36c-1.24,0.18-2.01,0.27-2.31,0.27c-3.55,0-6-0.87-7.36-2.62c-1.36-1.74-2.04-4.18-2.04-7.32V58.77
			h-6.3v-6.47h6.3V39.35h7.8v12.95h7.45v6.47H632.4z"/>
		<path class="st1" d="M686.85,84.13c-0.18,1.65-0.86,3.55-2.04,5.68c-0.71,1.36-1.58,2.65-2.62,3.86
			c-1.04,1.21-2.23,2.26-3.59,3.15c-1.48,0.95-3.12,1.72-4.92,2.31c-1.8,0.59-4.36,0.89-7.67,0.89c-6.38,0-11.44-2.16-15.16-6.47
			c-3.72-4.31-5.59-9.9-5.59-16.76c0-3.66,0.44-7.05,1.33-10.15c0.89-3.1,2.26-5.84,4.12-8.2c1.86-2.36,4.2-4.2,7.01-5.5
			c2.81-1.3,6.07-1.95,9.8-1.95c6.56,0,11.53,2.39,14.9,7.18c3.37,4.79,5.06,11.41,5.06,19.86H653.6c0,4.91,1.14,8.68,3.41,11.31
			c2.28,2.63,5.63,3.95,10.07,3.95c1.77,0,3.38-0.3,4.83-0.89c1.45-0.59,2.73-1.39,3.86-2.39c2.01-1.89,3.11-3.84,3.28-5.85H686.85z
			 M679.4,71.8c-0.12-1.95-0.43-3.74-0.93-5.37c-0.5-1.63-1.24-3.07-2.22-4.35c-0.97-1.27-2.28-2.28-3.9-3.02
			c-1.63-0.74-3.59-1.11-5.9-1.11c-1.72,0-3.37,0.37-4.97,1.11c-1.6,0.74-2.99,1.76-4.17,3.06c-1.18,1.3-2.1,2.79-2.75,4.48
			c-0.65,1.68-0.97,3.41-0.97,5.19H679.4z"/>
	</g>
</g>
</svg>
