<?xml version="1.0" encoding="utf-8"?>
<!-- Generator: Adobe Illustrator 25.3.1, SVG Export Plug-In . SVG Version: 6.00 Build 0)  -->
<svg version="1.1" id="Layer_1" xmlns="http://www.w3.org/2000/svg" xmlns:xlink="http://www.w3.org/1999/xlink" x="0px" y="0px"
	 viewBox="0 0 100 100" style="enable-background:new 0 0 100 100;" xml:space="preserve">
<style type="text/css">
	.st0{fill:#3B7DED;}
</style>
<g>
	<g>
		<path class="st0" d="M74.4,18.4l7.2-7.2C72.9,4.3,61.8,0,49.8,0S27.1,4.3,18.4,11.1l7.2,7.2c6.8-5.3,15.5-8.2,24.6-8.2
			C58.9,10.1,67.6,13,74.4,18.4z"/>
		<path class="st0" d="M81.6,74.4l7.2,7.2c7.2-8.7,11.1-19.8,11.1-31.4s-4.3-23.2-11.1-31.4l-7.2,7.2c5.3,6.8,8.2,15.5,8.2,24.6
			S86.5,67.6,81.6,74.4z"/>
		<path class="st0" d="M18.4,25.6l-7.2-7.2C4.3,27.1,0,37.7,0,49.8s4.3,23.2,11.1,31.4l7.2-7.2c-5.3-6.8-8.2-15.5-8.2-24.6
			C10.1,40.6,13,32.4,18.4,25.6z"/>
		<path class="st0" d="M25.6,81.6l-7.2,7.2c8.7,7.2,19.8,11.1,31.4,11.1s23.2-4.3,31.4-11.1l-7.2-7.2c-6.8,5.3-15.5,8.2-24.6,8.2
			S32.4,86.5,25.6,81.6z"/>
	</g>
	<g>
		<circle class="st0" cx="49.8" cy="49.8" r="30"/>
	</g>
</g>
</svg>
