<?xml version="1.0" encoding="utf-8"?>
<!-- Generator: Adobe Illustrator 25.3.1, SVG Export Plug-In . SVG Version: 6.00 Build 0)  -->
<svg version="1.1" id="Layer_1" xmlns="http://www.w3.org/2000/svg" xmlns:xlink="http://www.w3.org/1999/xlink" x="0px" y="0px"
	 viewBox="0 0 335.86 100" style="enable-background:new 0 0 335.86 100;" xml:space="preserve">
<style type="text/css">
	.st0{fill:#FAB217;}
	.st1{fill:#284A99;}
	.st2{fill:#ECAF1F;}
	.st3{fill:#D1D3D4;}
	.st4{fill:#FFFFFF;}
</style>
<g>
	<polygon class="st0" points="1.1,69.94 1.1,62.53 6.21,62.53 6.21,33.49 1.1,33.49 1.1,26.08 20.14,26.08 20.14,33.49 14.98,33.49 
		14.98,62.53 20.14,62.53 20.14,69.94 	"/>
	<polygon class="st0" points="60.02,69.94 60.02,62.53 64.07,62.53 64.07,33.49 60.02,33.49 60.02,26.08 89.71,26.08 89.71,39.99 
		83.27,39.99 83.27,33.49 72.83,33.49 72.83,43.61 81.26,43.61 81.26,51.02 72.83,51.02 72.83,62.53 83.27,62.53 83.27,55.97 
		89.71,55.97 89.71,69.94 	"/>
	<path class="st0" d="M112.62,25.38c5.81,0,10.38,2.19,13.72,6.56c3.33,4.37,5,9.7,5,15.99c0,6.31-1.67,11.64-5.01,16
		c-3.34,4.36-7.91,6.54-13.71,6.54c-6.02,0-10.65-2.24-13.88-6.73c-3.23-4.49-4.84-9.76-4.84-15.82c0-6.26,1.66-11.59,4.98-15.97
		C102.19,27.58,106.77,25.38,112.62,25.38 M112.62,33.39c-2.58,0-4.77,1.26-6.57,3.78c-1.8,2.52-2.7,6.22-2.7,11.1
		c0,4.31,0.89,7.76,2.66,10.34c1.78,2.59,3.98,3.88,6.61,3.88c2.58,0,4.78-1.27,6.59-3.8c1.81-2.53,2.71-6.19,2.71-10.96
		c0-4.27-0.86-7.73-2.59-10.38C117.6,34.72,115.36,33.39,112.62,33.39"/>
	<path class="st0" d="M22.9,42.66V26.65c0.88,0,1.71-0.01,2.54,0c5.02,0.05,10.06-0.2,15.04,0.21c10.4,0.84,18.32,8.2,20,18.14
		c1.82,10.75-5.27,21.3-16.13,24.13c-3.72,0.97-7.49,0.7-11.25,0.78c-3.36,0.07-6.72,0.01-10.17,0.01V54.05
		c2.64,0.37,4.94,1.37,7.18,2.59c1.65,0.9,3.33,1.83,5.12,2.36c4.75,1.41,9.91-0.46,12.63-4.36c2.82-4.05,2.65-9.44-0.42-13.18
		c-3.19-3.89-8.39-5.35-13.13-3.58c-1.48,0.55-2.87,1.34-4.23,2.12C27.9,41.25,25.58,42.14,22.9,42.66"/>
	<rect y="73.59" class="st1" width="326.98" height="0.84"/>
	<polygon class="st1" points="6.18,92.21 6.18,79.31 2.51,79.31 2.51,83.7 0.31,83.7 0.31,77.16 14.73,77.16 14.73,83.7 12.53,83.7 
		12.53,79.31 8.87,79.31 8.87,92.21 11.19,92.21 11.19,94.36 3.9,94.36 3.9,92.21 	"/>
	<path class="st1" d="M20.85,92.27v-7.79h-2.5v-2.09h4.44v2.7c0.27-0.7,0.65-1.28,1.14-1.74c0.49-0.46,1-0.77,1.54-0.91
		c0.54-0.15,1.28-0.22,2.22-0.22h0.64v2.37h-0.49c-1.24,0-2.16,0.12-2.77,0.36c-0.61,0.24-1.06,0.67-1.36,1.31
		c-0.29,0.63-0.44,1.76-0.44,3.39v2.63h2.7v2.09h-7.63v-2.09H20.85z"/>
	<path class="st1" d="M44.39,92.27v2.09h-4.25V92.9c-1.18,1.1-2.49,1.66-3.94,1.66c-1.13,0-2.11-0.35-2.94-1.06
		c-0.83-0.71-1.25-1.62-1.25-2.72c0-1.11,0.44-2.04,1.32-2.77c0.88-0.73,1.95-1.1,3.19-1.1c1.16,0,2.28,0.34,3.37,1.01v-1.19
		c0-0.61-0.06-1.08-0.18-1.41c-0.12-0.33-0.4-0.63-0.84-0.89c-0.44-0.26-1.01-0.4-1.72-0.4c-1.22,0-2.1,0.47-2.65,1.41l-2.33-0.59
		c1.03-1.86,2.82-2.79,5.35-2.79c0.93,0,1.73,0.12,2.41,0.36c0.68,0.24,1.18,0.56,1.52,0.94c0.33,0.38,0.56,0.8,0.67,1.24
		c0.12,0.45,0.17,1.15,0.17,2.13v5.54H44.39z M39.89,89.91c-1.05-0.79-2.11-1.19-3.19-1.19c-0.67,0-1.24,0.19-1.69,0.57
		c-0.45,0.38-0.68,0.87-0.68,1.47c0,0.56,0.2,1.03,0.59,1.41c0.4,0.38,0.94,0.57,1.62,0.57c1.18,0,2.29-0.48,3.34-1.43V89.91z"/>
	<path class="st1" d="M50.25,92.27v-7.79h-1.92v-2.09h4.35v9.88h1.92v2.09h-6.27v-2.09H50.25z M49.9,78.32
		c0-0.38,0.14-0.71,0.42-0.99c0.28-0.28,0.63-0.42,1.06-0.42c0.4,0,0.75,0.14,1.04,0.41c0.29,0.27,0.44,0.61,0.44,1
		c0,0.4-0.14,0.73-0.44,1.01c-0.29,0.28-0.64,0.41-1.04,0.41c-0.41,0-0.76-0.14-1.04-0.42C50.05,79.04,49.9,78.71,49.9,78.32"/>
	<path class="st1" d="M63.19,82.39v1.45c1.56-1.09,2.99-1.63,4.28-1.63c0.8,0,1.47,0.18,1.99,0.55c0.52,0.37,0.87,0.82,1.03,1.35
		c0.16,0.53,0.24,1.31,0.24,2.33v5.84h2.09v2.09H68.3v-7.83c0-0.91-0.14-1.5-0.42-1.77c-0.28-0.28-0.63-0.41-1.04-0.41
		c-1.08,0-2.29,0.51-3.65,1.52v6.41h2.14v2.09h-6.74v-2.09h2.18v-7.79h-2.18v-2.09H63.19z"/>
	<path class="st1" d="M78.43,92.27v-7.79h-1.92v-2.09h4.35v9.88h1.92v2.09h-6.27v-2.09H78.43z M78.09,78.32
		c0-0.38,0.14-0.71,0.42-0.99c0.28-0.28,0.63-0.42,1.06-0.42c0.4,0,0.75,0.14,1.04,0.41c0.29,0.27,0.44,0.61,0.44,1
		c0,0.4-0.14,0.73-0.44,1.01s-0.64,0.41-1.04,0.41c-0.41,0-0.76-0.14-1.04-0.42C78.23,79.04,78.09,78.71,78.09,78.32"/>
	<path class="st1" d="M91.37,82.39v1.45c1.56-1.09,2.99-1.63,4.28-1.63c0.8,0,1.47,0.18,1.99,0.55c0.52,0.37,0.87,0.82,1.03,1.35
		s0.24,1.31,0.24,2.33v5.84H101v2.09h-4.52v-7.83c0-0.91-0.14-1.5-0.42-1.77c-0.28-0.28-0.63-0.41-1.04-0.41
		c-1.08,0-2.29,0.51-3.65,1.52v6.41h2.14v2.09h-6.74v-2.09h2.18v-7.79h-2.18v-2.09H91.37z"/>
	<path class="st1" d="M119.93,82.39v2.09h-2.23v8.92c0,1.2-0.06,2.1-0.19,2.68c-0.13,0.58-0.44,1.18-0.93,1.78
		c-0.49,0.61-1.23,1.12-2.21,1.53c-0.98,0.41-2.08,0.62-3.29,0.62c-1.83,0-3.46-0.53-4.89-1.6l1.59-1.71
		c1.08,0.81,2.24,1.21,3.51,1.21c0.7,0,1.35-0.13,1.95-0.39c0.6-0.26,1.04-0.58,1.34-0.95c0.29-0.37,0.48-0.72,0.57-1.06
		c0.08-0.33,0.13-0.9,0.13-1.69v-1.09c-0.38,0.47-0.99,0.92-1.8,1.34c-0.82,0.42-1.72,0.63-2.69,0.63c-1.78,0-3.22-0.59-4.34-1.78
		c-1.12-1.19-1.68-2.65-1.68-4.38c0-1.9,0.62-3.43,1.85-4.59c1.23-1.17,2.66-1.75,4.28-1.75c1.64,0,3.1,0.63,4.38,1.89v-1.71H119.93
		z M107.35,88.5c0,1.21,0.37,2.2,1.09,2.97c0.73,0.77,1.66,1.15,2.8,1.15c1.11,0,2.07-0.39,2.87-1.16c0.8-0.77,1.2-1.76,1.2-2.97
		c0-1.23-0.4-2.22-1.2-2.96c-0.8-0.75-1.73-1.12-2.79-1.12c-1.06,0-1.98,0.37-2.78,1.11C107.74,86.25,107.35,87.25,107.35,88.5"/>
	<path class="st1" d="M133.07,84.48v-2.09h1.61v-1.84l2.43-2.15v4h2.29v2.09h-2.29v5.81c0,0.93,0.05,1.51,0.16,1.73
		c0.11,0.22,0.37,0.33,0.8,0.33c0.45,0,0.9-0.08,1.33-0.25v2.14c-0.62,0.21-1.25,0.32-1.87,0.32c-0.74,0-1.34-0.16-1.8-0.48
		c-0.46-0.32-0.75-0.72-0.87-1.19c-0.12-0.48-0.18-1.3-0.18-2.47v-5.94H133.07z"/>
	<path class="st1" d="M143.94,88.37c0-1.85,0.63-3.36,1.89-4.54c1.26-1.18,2.8-1.78,4.62-1.78c1.78,0,3.31,0.58,4.59,1.75
		c1.28,1.17,1.92,2.69,1.92,4.57c0,1.88-0.64,3.41-1.91,4.58c-1.28,1.17-2.81,1.76-4.6,1.76c-1.84,0-3.39-0.59-4.64-1.78
		C144.56,91.74,143.94,90.22,143.94,88.37 M146.51,88.37c0,1.18,0.38,2.15,1.15,2.91c0.76,0.76,1.7,1.13,2.8,1.13
		c1.12,0,2.05-0.38,2.81-1.14c0.76-0.76,1.13-1.73,1.13-2.89c0-1.17-0.38-2.14-1.15-2.9c-0.77-0.76-1.7-1.14-2.79-1.14
		c-1.14,0-2.09,0.39-2.83,1.16C146.88,86.27,146.51,87.23,146.51,88.37"/>
	<polygon class="st1" points="173.04,92.21 173.04,79.31 170.74,79.31 170.74,77.16 185.54,77.16 185.54,82.34 183.33,82.34 
		183.33,79.31 175.73,79.31 175.73,84.43 182.35,84.43 182.35,86.58 175.73,86.58 175.73,92.21 183.33,92.21 183.33,89.08 
		185.54,89.08 185.54,94.36 170.74,94.36 170.74,92.21 	"/>
	<polygon class="st1" points="196.49,89.59 194.04,92.27 195.63,92.27 195.63,94.36 189.63,94.36 189.63,92.27 191.46,92.27 
		195.18,88.21 191.62,84.48 189.95,84.48 189.95,82.39 195.76,82.39 195.76,84.48 194.22,84.48 196.45,86.82 198.6,84.48 
		197.34,84.48 197.34,82.39 203.19,82.39 203.19,84.48 201.14,84.48 197.75,88.2 201.62,92.27 203.19,92.27 203.19,94.36 
		197.34,94.36 197.34,92.27 199.05,92.27 	"/>
	<path class="st1" d="M219.04,82.39v4.53h-2.18c-0.11-0.87-0.48-1.53-1.09-1.99c-0.62-0.46-1.34-0.69-2.16-0.69
		c-1.09,0-1.98,0.37-2.66,1.12c-0.68,0.75-1.02,1.72-1.02,2.94c0,1.13,0.32,2.13,0.97,2.99c0.65,0.86,1.59,1.29,2.82,1.29
		c1.71,0,2.94-0.78,3.71-2.35l2.01,0.92c-1.11,2.38-3.05,3.57-5.82,3.57c-1.96,0-3.51-0.65-4.63-1.94
		c-1.13-1.29-1.69-2.79-1.69-4.48c0-1.81,0.61-3.3,1.84-4.47c1.23-1.17,2.64-1.76,4.25-1.76c1.37,0,2.53,0.39,3.48,1.18v-0.84
		H219.04z"/>
	<path class="st1" d="M236.83,88.97h-10.42c0.15,1.1,0.61,2,1.36,2.68c0.75,0.68,1.71,1.03,2.88,1.03c1.7,0,3.04-0.66,4.03-1.98
		l2.15,0.92c-0.7,1.05-1.61,1.82-2.73,2.33c-1.12,0.51-2.29,0.76-3.51,0.76c-1.89,0-3.51-0.57-4.86-1.71
		c-1.34-1.14-2.02-2.68-2.02-4.62c0-1.84,0.65-3.35,1.96-4.54c1.31-1.19,2.81-1.78,4.51-1.78c1.66,0,3.17,0.58,4.52,1.74
		C236.08,84.95,236.78,86.68,236.83,88.97 M234.33,87.26c-0.17-0.84-0.62-1.6-1.36-2.28c-0.73-0.68-1.63-1.02-2.7-1.02
		c-0.97,0-1.8,0.31-2.5,0.92c-0.69,0.61-1.11,1.41-1.27,2.38H234.33z"/>
	<polygon class="st1" points="243.29,92.27 243.29,79.25 241.08,79.25 241.08,77.16 245.72,77.16 245.72,92.27 247.61,92.27 
		247.61,94.36 241.08,94.36 241.08,92.27 	"/>
	<polygon class="st1" points="253.69,92.27 253.69,79.25 251.49,79.25 251.49,77.16 256.12,77.16 256.12,92.27 258.02,92.27 
		258.02,94.36 251.49,94.36 251.49,92.27 	"/>
	<path class="st1" d="M275.42,88.97h-10.42c0.15,1.1,0.61,2,1.36,2.68c0.75,0.68,1.71,1.03,2.88,1.03c1.7,0,3.04-0.66,4.03-1.98
		l2.15,0.92c-0.7,1.05-1.61,1.82-2.73,2.33c-1.12,0.51-2.29,0.76-3.51,0.76c-1.89,0-3.51-0.57-4.86-1.71
		c-1.34-1.14-2.02-2.68-2.02-4.62c0-1.84,0.65-3.35,1.96-4.54c1.31-1.19,2.81-1.78,4.51-1.78c1.66,0,3.17,0.58,4.52,1.74
		C274.67,84.95,275.37,86.68,275.42,88.97 M272.92,87.26c-0.17-0.84-0.62-1.6-1.36-2.28c-0.73-0.68-1.63-1.02-2.7-1.02
		c-0.97,0-1.8,0.31-2.5,0.92c-0.69,0.61-1.11,1.41-1.27,2.38H272.92z"/>
	<path class="st1" d="M284.46,82.39v1.45c1.56-1.09,2.99-1.63,4.28-1.63c0.8,0,1.47,0.18,1.99,0.55c0.52,0.37,0.87,0.82,1.03,1.35
		c0.16,0.53,0.24,1.31,0.24,2.33v5.84h2.09v2.09h-4.52v-7.83c0-0.91-0.14-1.5-0.42-1.77c-0.28-0.28-0.63-0.41-1.04-0.41
		c-1.07,0-2.29,0.51-3.65,1.52v6.41h2.14v2.09h-6.75v-2.09h2.18v-7.79h-2.18v-2.09H284.46z"/>
	<path class="st1" d="M309.6,82.39v4.53h-2.18c-0.11-0.87-0.48-1.53-1.09-1.99c-0.62-0.46-1.34-0.69-2.16-0.69
		c-1.09,0-1.98,0.37-2.66,1.12c-0.68,0.75-1.02,1.72-1.02,2.94c0,1.13,0.32,2.13,0.97,2.99c0.65,0.86,1.59,1.29,2.82,1.29
		c1.71,0,2.94-0.78,3.71-2.35l2.01,0.92c-1.11,2.38-3.05,3.57-5.82,3.57c-1.96,0-3.51-0.65-4.63-1.94
		c-1.13-1.29-1.69-2.79-1.69-4.48c0-1.81,0.61-3.3,1.84-4.47c1.23-1.17,2.64-1.76,4.25-1.76c1.37,0,2.53,0.39,3.48,1.18v-0.84H309.6
		z"/>
	<path class="st1" d="M327.39,88.97h-10.42c0.15,1.1,0.61,2,1.36,2.68c0.75,0.68,1.71,1.03,2.88,1.03c1.7,0,3.04-0.66,4.03-1.98
		l2.15,0.92c-0.7,1.05-1.61,1.82-2.73,2.33c-1.12,0.51-2.29,0.76-3.51,0.76c-1.89,0-3.51-0.57-4.86-1.71
		c-1.34-1.14-2.02-2.68-2.02-4.62c0-1.84,0.65-3.35,1.96-4.54c1.31-1.19,2.81-1.78,4.51-1.78c1.66,0,3.17,0.58,4.52,1.74
		C326.64,84.95,327.34,86.68,327.39,88.97 M324.88,87.26c-0.17-0.84-0.62-1.6-1.36-2.28c-0.73-0.68-1.63-1.02-2.7-1.02
		c-0.97,0-1.8,0.31-2.5,0.92c-0.69,0.61-1.11,1.41-1.27,2.38H324.88z"/>
	<polygon class="st1" points="145.14,70.99 135.11,34.25 131.09,34.25 131.09,26.84 148.29,26.84 148.29,34.25 143.93,34.25 
		149.59,56.24 155.27,34.25 150.97,34.25 150.97,26.84 165.89,26.84 165.89,34.25 161.8,34.25 152.14,70.99 	"/>
	<polygon class="st1" points="167.44,70.71 167.44,63.3 171.49,63.3 171.49,34.25 167.44,34.25 167.44,26.84 197.13,26.84 
		197.13,40.75 190.69,40.75 190.69,34.25 180.25,34.25 180.25,44.38 188.68,44.38 188.68,51.79 180.25,51.79 180.25,63.3 
		190.69,63.3 190.69,56.74 197.13,56.74 197.13,70.71 	"/>
	<path class="st1" d="M235.12,63.3v7.41h-10.26l-7.61-19.21h-3.85V63.3h4.21v7.41h-17.61V63.3h4.63V34.25h-4.63v-7.41h20.32
		c3.83,0,6.58,1.26,8.27,3.77c1.69,2.51,2.53,5.36,2.53,8.53c0,4.98-1.95,8.62-5.84,10.91l5.47,13.24H235.12z M213.4,44.5h3
		c3.71,0,5.57-1.72,5.57-5.17c0-1.7-0.42-2.98-1.27-3.82c-0.85-0.84-2.01-1.26-3.5-1.26h-3.8V44.5z"/>
	<path class="st1" d="M237.38,70.71V55.76h5.71c0.06,2.73,0.61,4.75,1.65,6.04c1.03,1.29,2.21,1.94,3.54,1.94
		c1.03,0,1.9-0.47,2.62-1.4c0.71-0.94,1.07-2.03,1.07-3.3c0-1.35-0.35-2.48-1.04-3.39c-0.69-0.91-1.96-1.96-3.81-3.12
		c-3.9-2.44-6.54-4.6-7.93-6.48c-1.39-1.87-2.09-4.4-2.09-7.58c0-3.83,0.92-6.8,2.76-8.91c1.84-2.11,3.93-3.16,6.27-3.16
		c2.68,0,4.75,1.36,6.22,4.08v-3.64h5.69v13.34h-5.69c-0.18-2.06-0.72-3.65-1.63-4.78c-0.91-1.12-1.97-1.69-3.18-1.69
		c-0.94,0-1.73,0.33-2.37,0.98c-0.65,0.65-0.97,1.5-0.97,2.55c0,0.9,0.27,1.76,0.8,2.57c0.53,0.81,2.09,1.96,4.68,3.44
		c2.49,1.44,4.4,2.75,5.73,3.92c1.33,1.17,2.38,2.68,3.16,4.55c0.77,1.86,1.16,4.01,1.16,6.45c0,4.33-0.97,7.6-2.91,9.78
		c-1.94,2.19-4.23,3.28-6.88,3.28c-2.95,0-5.23-1.42-6.83-4.27v3.74H237.38z"/>
	<polygon class="st1" points="262.44,70.71 262.44,63.3 267.55,63.3 267.55,34.25 262.44,34.25 262.44,26.84 281.47,26.84 
		281.47,34.25 276.32,34.25 276.32,63.3 281.47,63.3 281.47,70.71 	"/>
	<polygon class="st1" points="309.52,70.71 309.52,63.3 314.24,63.3 314.24,51.44 305.11,34.25 300.99,34.25 300.99,26.84 
		317.85,26.84 317.85,34.25 314.53,34.25 319.48,44.95 324.49,34.25 321.02,34.25 321.02,26.84 335.86,26.84 335.86,34.25 
		331.72,34.25 323,51.44 323,63.3 327.7,63.3 327.7,70.71 	"/>
	<path class="st0" d="M38.51,38.35c3.16,0.33,5.71,1.5,7.64,3.86c0.28,0.34,0.17,0.99,0.24,1.5c-0.45-0.17-1.03-0.21-1.32-0.52
		c-2.98-3.23-6.62-3.91-10.57-1.95c-0.38,0.19-0.92,0.03-1.39,0.03c0.23-0.44,0.35-1.14,0.7-1.29
		C35.34,39.35,36.94,38.88,38.51,38.35"/>
	<polygon class="st1" points="292.13,20.87 329.68,10.66 292.13,0 254.45,10.43 	"/>
	<polygon class="st2" points="322.81,20.97 323.61,25.23 320.4,25.23 321.23,20.97 	"/>
	<path class="st2" d="M313.28,23.47v-7.13l-21.14,5.85l-19.71-5.66v6.94c0,0,16.83,1.03,19.75,6.79
		C292.17,30.26,295.97,23.21,313.28,23.47"/>
	<polyline class="st2" points="295.9,24.45 295.9,70.71 288.23,70.71 288.23,24.45 	"/>
	<path class="st2" d="M322,19.94c0.36,0,0.65-0.31,0.65-0.7l0.02-7.09L292.6,7.79c-0.35-0.05-0.68,0.22-0.73,0.6
		c-0.05,0.38,0.2,0.73,0.56,0.78l28.94,4.21l-0.02,5.87C321.35,19.63,321.64,19.94,322,19.94"/>
	<polygon class="st3" points="292.39,9.16 317.55,13.95 320.27,13.22 	"/>
	<rect x="321.05" y="18.45" class="st4" width="2.06" height="2.55"/>
</g>
</svg>
